<svg width="64" height="64" viewBox="0 0 64 64" fill="" xmlns="http://www.w3.org/2000/svg">
    <g clip-path="url(#clip0)">
        <path d="M32.0001 21.7003C26.3175 21.7003 21.7004 26.3174 21.7004 32C21.7004 37.6826 26.3175 42.2997 32.0001 42.2997C37.6827 42.2997 42.2998 37.6826 42.2998 32C42.2998 26.3174 37.6827 21.7003 32.0001 21.7003ZM31.2188 28.9456C29.9402 28.9456 28.8747 30.0111 28.8747 31.2897H25.4651C25.5362 28.0932 28.0933 25.5361 31.2188 25.5361V28.9456Z"
              fill=""/>
        <path d="M63.2542 29.869C59.7736 25.5361 47.343 11.4007 32 11.4007C16.657 11.4007 4.22642 25.5361 0.745838 29.869C-0.248613 31.0766 -0.248613 32.8524 0.745838 34.131C4.22642 38.4639 16.657 52.5993 32 52.5993C47.343 52.5993 59.7736 38.4639 63.2542 34.131C64.2486 32.9234 64.2486 31.1476 63.2542 29.869ZM32 46.9168C23.7603 46.9168 17.0832 40.2397 17.0832 32C17.0832 23.7603 23.7603 17.0832 32 17.0832C40.2397 17.0832 46.9168 23.7603 46.9168 32C46.9168 40.2397 40.2397 46.9168 32 46.9168Z"
              fill=""/>
    </g>
    <defs>
        <clipPath id="clip0">
            <rect width="64" height="64" fill="white"/>
        </clipPath>
    </defs>
</svg>
