<svg width="64" height="64" xmlns="http://www.w3.org/2000/svg"><g clip-path="url(#clip0)"><path d="M32 21.7c-5.683 0-10.3 4.617-10.3 10.3 0 5.683 4.617 10.3 10.3 10.3 5.683 0 10.3-4.617 10.3-10.3 0-5.683-4.617-10.3-10.3-10.3zm-.781 7.246a2.365 2.365 0 00-2.344 2.344h-3.41c.071-3.197 2.628-5.754 5.754-5.754v3.41z"/><path d="M63.254 29.869C59.774 25.536 47.343 11.401 32 11.401 16.657 11.4 4.226 25.536.746 29.869c-.995 1.208-.995 2.983 0 4.262C4.226 38.464 16.657 52.599 32 52.599c15.343 0 27.774-14.135 31.254-18.468.995-1.208.995-2.983 0-4.262zM32 46.917c-8.24 0-14.917-6.677-14.917-14.917S23.76 17.083 32 17.083 46.917 23.76 46.917 32 40.24 46.917 32 46.917z"/></g><defs><clipPath id="clip0"><path fill="#fff" d="M0 0h64v64H0z"/></clipPath></defs></svg>